HIERARCHY
ROOT joint_Root
{
	OFFSET 0.0 0.0 0.0
	CHANNELS 6 Xposition Yposition Zposition Zrotation Xrotation Yrotation 
	JOINT Hips
	{
		OFFSET -0.726466 93.3139 -2.00062
		CHANNELS 6 Xposition Yposition Zposition Zrotation Xrotation Yrotation 
		JOINT Spine
		{
			OFFSET 15.7357 0.0 0.0
			CHANNELS 6 Xposition Yposition Zposition Zrotation Xrotation Yrotation 
			JOINT Chest
			{
				OFFSET 8.98455 -0.406207 0.0
				CHANNELS 6 Xposition Yposition Zposition Zrotation Xrotation Yrotation 
				JOINT Neck
				{
					OFFSET 16.3773 0.0 0.0
					CHANNELS 6 Xposition Yposition Zposition Zrotation Xrotation Yrotation 
					JOINT Head
					{
						OFFSET 6.45672 0.0 0.0
						CHANNELS 6 Xposition Yposition Zposition Zrotation Xrotation Yrotation 
						End Site
						{
							OFFSET 0.0 0.0 0.0
						}
					}
				}
				JOINT Shoulder_L
				{
					OFFSET 12.9942 -0.242716 4.98039
					CHANNELS 6 Xposition Yposition Zposition Zrotation Xrotation Yrotation 
					JOINT UpperArm_L
					{
						OFFSET 5.34809 0.0 0.0
						CHANNELS 6 Xposition Yposition Zposition Zrotation Xrotation Yrotation 
						JOINT LowerArm_L
						{
							OFFSET 24.3286 1.87007e-05 0.0
							CHANNELS 6 Xposition Yposition Zposition Zrotation Xrotation Yrotation 
							JOINT Hand_L
							{
								OFFSET 22.2916 0.0 0.0
								CHANNELS 6 Xposition Yposition Zposition Zrotation Xrotation Yrotation 
								End Site
								{
									OFFSET 0.0 0.0 0.0
								}
							}
						}
					}
				}
				JOINT Shoulder_R
				{
					OFFSET 12.9945 -0.242716 -4.98039
					CHANNELS 6 Xposition Yposition Zposition Zrotation Xrotation Yrotation 
					JOINT UpperArm_R
					{
						OFFSET -5.34813 0.0 0.0
						CHANNELS 6 Xposition Yposition Zposition Zrotation Xrotation Yrotation 
						JOINT LowerArm_R
						{
							OFFSET -24.3289 0.000322201 0.0
							CHANNELS 6 Xposition Yposition Zposition Zrotation Xrotation Yrotation 
							JOINT Hand_R
							{
								OFFSET -22.2915 -0.000108084 0.0
								CHANNELS 6 Xposition Yposition Zposition Zrotation Xrotation Yrotation 
								End Site
								{
									OFFSET 0.0 0.0 0.0
								}
							}
						}
					}
				}
			}
		}
		JOINT UpperLeg_L
		{
			OFFSET -2.19248 -6.46944 0.0
			CHANNELS 6 Xposition Yposition Zposition Zrotation Xrotation Yrotation 
			JOINT LowerLeg_L
			{
				OFFSET 39.0811 0.0 -1.23785e-05
				CHANNELS 6 Xposition Yposition Zposition Zrotation Xrotation Yrotation 
				JOINT Foot_L
				{
					OFFSET 40.9854 0.0 -1.26872e-05
					CHANNELS 6 Xposition Yposition Zposition Zrotation Xrotation Yrotation 
					JOINT Toes_L
					{
						OFFSET 11.7543 0.0 0.0
						CHANNELS 6 Xposition Yposition Zposition Zrotation Xrotation Yrotation 
						End Site
						{
							OFFSET 0.0 0.0 0.0
						}
					}
				}
			}
		}
		JOINT UpperLeg_R
		{
			OFFSET -2.19251 6.46944 0.0
			CHANNELS 6 Xposition Yposition Zposition Zrotation Xrotation Yrotation 
			JOINT LowerLeg_R
			{
				OFFSET -39.0811 -0.00228153 -0.0401928
				CHANNELS 6 Xposition Yposition Zposition Zrotation Xrotation Yrotation 
				JOINT Foot_R
				{
					OFFSET -40.9854 0.0 0.0
					CHANNELS 6 Xposition Yposition Zposition Zrotation Xrotation Yrotation 
					JOINT Toes_R
					{
						OFFSET -11.7543 0.0 0.0
						CHANNELS 6 Xposition Yposition Zposition Zrotation Xrotation Yrotation 
						End Site
						{
							OFFSET 0.0 0.0 0.0
						}
					}
				}
			}
		}
	}
}
MOTION
Frames:	6
Frame Time:	0.0333333
0.000000 0.000000 0.000000 0.000000 0.000000 -0.000000 0.248993 86.606600 -60.937100 88.315800 8.131330 1.660880 15.735700 0.000005 -0.000001 60.688500 79.895200 -59.056300 8.984550 -0.406207 -0.000000 10.108000 -9.798360 4.137130 16.377300 -0.000001 -0.000001 7.511900 -2.795040 -1.269390 6.456720 -0.000001 -0.000000 1.248490 2.771820 -0.245638 12.994200 -0.242716 4.980390 -88.289600 -5.000250 -71.088300 5.348090 -0.000007 -0.000001 -38.998200 22.700700 -36.327600 24.328600 0.000019 0.000005 3.764030 2.334750 -58.233000 22.291600 -0.000001 0.000005 10.988400 5.572010 -9.790990 12.994500 -0.242716 -4.980390 88.894300 2.061060 -61.780600 -5.348130 -0.000001 -0.000004 -61.171300 25.622100 5.674910 -24.328900 0.000322 -0.000009 5.670400 7.646530 -36.736200 -22.291500 -0.000108 -0.000004 1.979850 5.532420 -7.902020 -2.192480 -6.469440 -0.000000 -171.837000 -1.960330 11.099100 39.081100 -0.000007 -0.000012 -0.041778 0.083657 26.537300 40.985400 -0.000006 -0.000013 0.162048 1.689790 -79.015500 11.754300 -0.000000 0.000003 -3.011110 -3.595340 -22.368800 -2.192510 6.469440 -0.000001 -175.348000 22.245600 149.644000 -39.081100 -0.002282 -0.040193 0.000180 0.015491 11.515900 -40.985400 0.000008 0.000006 -3.768200 -2.722680 -59.042900 -11.754300 -0.000006 -0.000006 -0.019888 -0.166667 -23.382300
0.000000 0.000000 0.000000 0.000000 0.000000 -0.000000 -1.044400 85.895700 -55.994500 86.691600 9.338890 0.535739 15.735700 0.000005 -0.000001 58.908200 80.271200 -56.518200 8.984550 -0.406207 -0.000000 9.213850 -9.964830 5.590580 16.377300 -0.000001 -0.000001 8.198200 -3.267040 -1.384150 6.456720 -0.000001 -0.000000 0.808491 2.777750 -0.334518 12.994200 -0.242716 4.980390 -88.638200 -4.141340 -71.780900 5.348090 -0.000007 -0.000001 -40.915300 22.360400 -34.148300 24.328600 0.000019 0.000005 3.983970 2.418360 -58.789500 22.291600 -0.000001 0.000005 11.331800 5.572430 -9.813370 12.994500 -0.242716 -4.980390 88.635600 2.532830 -61.678200 -5.348130 -0.000001 -0.000004 -61.173400 24.469500 6.861990 -24.328900 0.000322 -0.000009 6.093350 8.307380 -36.464000 -22.291500 -0.000108 -0.000004 1.998120 5.532660 -7.912100 -2.192480 -6.469440 -0.000000 -168.105000 -1.698830 11.205200 39.081100 -0.000007 -0.000012 -0.062956 0.115256 28.644600 40.985400 -0.000006 -0.000013 -0.823989 3.526470 -76.784900 11.754300 -0.000000 0.000003 -1.282190 -1.393810 -23.882300 -2.192510 6.469440 -0.000001 -172.636000 20.662700 143.835000 -39.081100 -0.002282 -0.040193 0.050228 -0.120153 21.326200 -40.985400 0.000008 0.000006 5.371830 -4.442420 -52.099800 -11.754300 -0.000006 -0.000006 -0.033029 -0.231027 -26.045400
0.000000 0.000000 0.000000 0.000000 0.000000 -0.000000 -2.377080 85.306300 -50.425600 85.161700 10.620100 0.222450 15.735700 0.000005 -0.000001 57.350800 80.535600 -54.243800 8.984550 -0.406207 -0.000000 8.556830 -10.143400 6.982000 16.377300 -0.000001 -0.000001 8.239970 -3.578060 -1.664930 6.456720 -0.000001 -0.000000 0.945163 2.699640 -0.507037 12.994200 -0.242716 4.980390 -88.986400 -3.127100 -72.030200 5.348090 -0.000007 -0.000001 -42.994000 23.290900 -31.270700 24.328600 0.000019 0.000005 4.765700 2.888190 -58.852400 22.291600 -0.000001 0.000005 11.395700 5.573840 -9.886410 12.994500 -0.242716 -4.980390 88.473200 2.826140 -61.604800 -5.348130 -0.000001 -0.000004 -61.337900 23.219500 7.833330 -24.328900 0.000322 -0.000009 5.964010 8.289160 -35.932900 -22.291500 -0.000108 -0.000004 2.104560 5.533920 -7.968500 -2.192480 -6.469440 -0.000000 -164.622000 -0.766980 11.441100 39.081100 -0.000007 -0.000012 -0.046164 0.074381 31.825800 40.985400 -0.000006 -0.000013 -1.344300 4.376700 -72.440900 11.754300 -0.000000 0.000003 -0.068191 -0.357534 -31.374300 -2.192510 6.469440 -0.000001 -172.420000 18.351300 141.233000 -39.081100 -0.002282 -0.040193 0.076940 -0.126778 30.149900 -40.985400 0.000008 0.000006 4.213380 -7.582200 -47.318800 -11.754300 -0.000006 -0.000006 -0.027690 -0.206673 -25.034700
0.000000 0.000000 0.000000 0.000000 0.000000 -0.000000 -3.455010 84.953800 -44.515800 83.935900 10.367200 2.569680 15.735700 0.000005 -0.000001 60.029400 80.034200 -56.453100 8.984550 -0.406207 -0.000000 9.928090 -9.829960 8.017450 16.377300 -0.000001 -0.000001 7.801010 -3.214970 -1.864420 6.456720 -0.000001 -0.000000 0.776593 2.698520 -0.997363 12.994200 -0.242716 4.980390 -89.110800 -2.694620 -71.730300 5.348090 -0.000007 -0.000001 -47.190600 24.212500 -27.230200 24.328600 0.000019 0.000005 6.010670 3.771430 -58.008600 22.291600 -0.000001 0.000005 11.363800 5.578660 -10.140300 12.994500 -0.242716 -4.980390 88.653900 2.565620 -62.303300 -5.348130 -0.000001 -0.000004 -61.930500 22.540500 7.084670 -24.328900 0.000322 -0.000009 5.733380 8.355770 -34.646400 -22.291500 -0.000108 -0.000004 2.163630 5.532040 -7.885750 -2.192480 -6.469440 -0.000000 -162.243000 -0.267238 12.943600 39.081100 -0.000007 -0.000012 0.021965 -0.028772 37.356700 40.985400 -0.000006 -0.000013 0.428534 3.399940 -64.471500 11.754300 -0.000000 0.000003 -0.153523 -0.561660 -40.353300 -2.192510 6.469440 -0.000001 -171.864000 17.397800 142.593000 -39.081100 -0.002282 -0.040193 0.105492 -0.126444 38.950200 -40.985400 0.000008 0.000006 5.392840 -7.507860 -50.765300 -11.754300 -0.000006 -0.000006 -0.017096 -0.150635 -22.722500
0.000000 0.000000 0.000000 0.000000 0.000000 -0.000000 -4.515380 85.036600 -38.963900 83.515000 10.117600 4.603860 15.735700 0.000005 -0.000001 62.811400 79.589700 -59.138700 8.984550 -0.406207 -0.000000 11.175800 -9.333670 8.270430 16.377300 -0.000001 -0.000001 7.628110 -3.130410 -1.549260 6.456720 -0.000001 -0.000000 0.711471 2.463750 -1.170410 12.994200 -0.242716 4.980390 -89.084500 -2.778890 -71.757000 5.348090 -0.000007 -0.000001 -51.877700 25.221400 -23.427900 24.328600 0.000019 0.000005 6.204720 4.311410 -55.335900 22.291600 -0.000001 0.000005 11.178700 5.581020 -10.267200 12.994500 -0.242716 -4.980390 88.650300 2.643420 -62.938900 -5.348130 -0.000001 -0.000004 -62.109100 23.552000 4.952720 -24.328900 0.000322 -0.000009 5.826420 8.849880 -33.560400 -22.291500 -0.000108 -0.000004 2.201720 5.528020 -7.708670 -2.192480 -6.469440 -0.000000 -161.534000 0.741755 11.192500 39.081100 -0.000007 -0.000012 0.118049 -0.114725 45.817300 40.985400 -0.000006 -0.000013 1.142340 0.118631 -53.077700 11.754300 -0.000000 0.000003 -0.109696 -0.468014 -36.160400 -2.192510 6.469440 -0.000001 -171.275000 18.427100 145.537000 -39.081100 -0.002282 -0.040193 0.171015 -0.168897 44.804900 -40.985400 0.000008 0.000006 7.533410 -7.063350 -57.506900 -11.754300 -0.000006 -0.000006 -0.009395 -0.099061 -20.608500
0.000000 0.000000 0.000000 0.000000 0.000000 -0.000000 -5.442000 85.481400 -34.176600 83.922400 10.076700 5.671560 15.735700 0.000005 -0.000001 65.296500 79.564400 -61.881800 8.984550 -0.406207 -0.000000 11.555400 -8.540670 7.702800 16.377300 -0.000001 -0.000001 7.541920 -3.443940 -1.083790 6.456720 -0.000001 -0.000000 1.243140 1.629030 -0.568099 12.994200 -0.242716 4.980390 -89.002200 -3.030740 -71.767900 5.348090 -0.000007 -0.000001 -55.409300 27.228500 -20.829900 24.328600 0.000019 0.000005 5.655740 4.563080 -51.225300 22.291600 -0.000001 0.000005 10.274100 5.583520 -10.400700 12.994500 -0.242716 -4.980390 88.525700 2.930960 -63.282700 -5.348130 -0.000001 -0.000004 -61.897500 25.348500 2.670480 -24.328900 0.000322 -0.000009 5.666750 8.566750 -33.673900 -22.291500 -0.000108 -0.000004 2.682200 5.530410 -7.813250 -2.192480 -6.469440 -0.000000 -162.567000 1.470180 6.796610 39.081100 -0.000007 -0.000012 0.169963 -0.121410 54.459800 40.985400 -0.000006 -0.000013 5.155810 -4.213970 -41.678900 11.754300 -0.000000 0.000003 -0.005818 -0.069186 -19.392400 -2.192510 6.469440 -0.000001 -171.790000 18.264200 149.231000 -39.081100 -0.002282 -0.040193 0.195331 -0.178228 47.141500 -40.985400 0.000008 0.000006 7.902620 -8.035720 -62.261500 -11.754300 -0.000006 -0.000006 -0.007359 -0.082720 -19.940900
